<svg xmlns="http://www.w3.org/2000/svg" viewBox="0 0 113 113"><defs><style>.cls-1{fill:#a5a5a5;stroke:#a5a5a5;stroke-miterlimit:10;}</style></defs><g id="Layer_1_Image" data-name="Layer 1 Image"><path class="cls-1" d="M101.86,32.45h-1.74V30.14a3.4,3.4,0,0,0-6.8,0v2.31H80.25L70.86,19.63A1.55,1.55,0,0,0,69.62,19H43.12a1.56,1.56,0,0,0-1.25.63L32.48,32.45H11.14a5.8,5.8,0,0,0-5.79,5.79v50A5.8,5.8,0,0,0,11.14,94h90.72a5.8,5.8,0,0,0,5.79-5.79v-50A5.8,5.8,0,0,0,101.86,32.45ZM43.9,22.1H68.83l7.59,10.35H66.64V29.31a4.13,4.13,0,0,0-4.12-4.12H50.61a4.12,4.12,0,0,0-4.11,4.12v3.14H36.32Zm5.69,10.35V29.31a1,1,0,0,1,1-1H62.52a1,1,0,0,1,1,1v3.14Zm55,55.76a2.7,2.7,0,0,1-2.69,2.69H11.14a2.7,2.7,0,0,1-2.69-2.69v-50a2.7,2.7,0,0,1,2.69-2.7h90.72a2.7,2.7,0,0,1,2.69,2.7Z"/><path class="cls-1" d="M56.5,41.37A21.86,21.86,0,1,0,78.35,63.22,21.87,21.87,0,0,0,56.5,41.37ZM56.5,82A18.76,18.76,0,1,1,75.26,63.22,18.78,18.78,0,0,1,56.5,82Z"/><path class="cls-1" d="M56.5,49.36a12.84,12.84,0,0,0-11.85,7,18.78,18.78,0,0,0-2.14,6.77,1.53,1.53,0,0,0,1.4,1.67h.14a1.55,1.55,0,0,0,1.54-1.41c0-.44,1.11-10.9,10.91-10.9a1.55,1.55,0,0,0,0-3.1Z"/></g></svg>