<svg xmlns="http://www.w3.org/2000/svg" viewBox="0 0 113 113"><defs><style>.cls-1{fill:#a5a5a5;stroke:#a5a5a5;stroke-miterlimit:10;}</style></defs><g id="Layer_3_Image" data-name="Layer 3 Image"><path class="cls-1" d="M91.5,44.7V25A8.54,8.54,0,0,0,83,16.5H23.71a8.54,8.54,0,0,0-8.41,7.15h0A8.71,8.71,0,0,0,15.19,25V88a8.53,8.53,0,0,0,8.52,8.52H83A8.54,8.54,0,0,0,91.5,88V73.27h.3a6,6,0,0,0,6-6v-15A7.65,7.65,0,0,0,91.5,44.7ZM94.07,52a6.12,6.12,0,0,0-2.27-.44h-.3v-3A3.92,3.92,0,0,1,94.07,52ZM23.71,20.23H83A4.8,4.8,0,0,1,87.76,25v5.8a11.65,11.65,0,0,0-8-3.15H26.9c-6.19,0-7.67-.65-7.88-3.62A4.79,4.79,0,0,1,23.71,20.23ZM87.76,88A4.8,4.8,0,0,1,83,92.77H23.71A4.8,4.8,0,0,1,18.92,88V30.24c2.35,1.16,5.42,1.16,8,1.16H79.79a8,8,0,0,1,8,8V51.56H65.63a6,6,0,0,0-6,6v9.69a6,6,0,0,0,6,6H87.76Zm0-32.69V69.54H65.63a2.29,2.29,0,0,1-2.29-2.28V57.57a2.29,2.29,0,0,1,2.29-2.28Zm6.32,12a2.29,2.29,0,0,1-2.28,2.28h-.3V55.29h.3a2.29,2.29,0,0,1,2.28,2.28v9.69Z"/><circle class="cls-1" cx="73.68" cy="62.41" r="2.6"/></g></svg>