<svg xmlns="http://www.w3.org/2000/svg" viewBox="0 0 122.71 113"><defs><style>.cls-1{fill:#a5a5a5;stroke:#a5a5a5;stroke-miterlimit:10;}</style></defs><g id="Layer_1_Image" data-name="Layer 1 Image"><path class="cls-1" d="M38.4,49.2A16.35,16.35,0,1,0,22.05,32.85,16.37,16.37,0,0,0,38.4,49.2Zm0-29A12.68,12.68,0,1,1,25.71,32.85,12.7,12.7,0,0,1,38.4,20.17Z"/><path class="cls-1" d="M83.86,49.2A16.35,16.35,0,1,0,67.51,32.85,16.37,16.37,0,0,0,83.86,49.2Zm0-29A12.68,12.68,0,1,1,71.18,32.85,12.69,12.69,0,0,1,83.86,20.17Z"/><path class="cls-1" d="M83.86,58.12a36.46,36.46,0,0,0-22.74,7.95A36.52,36.52,0,0,0,1.85,94.67a1.84,1.84,0,0,0,3.67,0,32.88,32.88,0,1,1,65.75,0,1.84,1.84,0,0,0,3.67,0,36.43,36.43,0,0,0-11-26.13,32.87,32.87,0,0,1,52.83,26.13,1.84,1.84,0,0,0,3.67,0A36.6,36.6,0,0,0,83.86,58.12Z"/></g></svg>