<svg xmlns="http://www.w3.org/2000/svg" viewBox="0 0 113 113"><defs><style>.cls-1{fill:#a5a5a5;stroke:#a5a5a5;stroke-miterlimit:10;}</style></defs><g id="Layer_1_Image" data-name="Layer 1 Image"><path class="cls-1" d="M56.18,53.17A15.91,15.91,0,1,0,40.27,37.26,15.93,15.93,0,0,0,56.18,53.17Zm0-29.32A13.41,13.41,0,1,1,42.77,37.26,13.42,13.42,0,0,1,56.18,23.85Z"/><path class="cls-1" d="M102.07,100.84,89,63.43a1.29,1.29,0,0,0-.78-.77l-14.73-5a26.76,26.76,0,1,0-34.51,0L25,62.67a1.24,1.24,0,0,0-.75.75L10.94,99.75a1.24,1.24,0,0,0,.25,1.27,1.25,1.25,0,0,0,1.25.36l22.42-6.13,20.91,7.18h.07l.06,0h.56l0,0h.07l20.26-7,23.7,7a1.34,1.34,0,0,0,.35,0,1.26,1.26,0,0,0,1.18-1.66ZM42.34,60.56c2.19,2.22,6.61,7.37,12.59,17.81V99.5L36.32,93.11Zm15.09,17.8c.49-.86,2.1-3.65,4.33-7A80.25,80.25,0,0,1,70,60.73l5.41,32.59-18,6.18ZM31.92,37.26a24.26,24.26,0,1,1,38.2,19.85h0l-.06,0,0,0,0,0c-5.89,5.5-11.5,14.43-13.8,18.32-8.43-14.35-13.7-18.25-13.93-18.42h0A24.29,24.29,0,0,1,31.92,37.26ZM26.41,64.83,39.9,60l-6.09,32.9L14.12,98.33ZM77.92,93.18,72.41,60,86.8,64.84,98.9,99.36Z"/></g></svg>